<svg width="185" height="43" viewBox="0 0 185 43" fill="none" xmlns="http://www.w3.org/2000/svg">
<rect width="185" height="43" rx="17" fill="#8042D2"/>
<path d="M29.9129 21.172C31.4519 20.362 32.4239 18.904 32.4239 17.014C32.4239 14.071 29.9939 12.1 25.2689 12.1H16.0349V31H25.8089C30.7769 31 33.3689 29.11 33.3689 25.843C33.3689 23.467 32.0189 21.847 29.9129 21.172ZM24.7289 15.394C26.8619 15.394 28.0229 16.123 28.0229 17.608C28.0229 19.093 26.8619 19.849 24.7289 19.849H20.3819V15.394H24.7289ZM25.4849 27.706H20.3819V23.035H25.4849C27.7529 23.035 28.9679 23.791 28.9679 25.384C28.9679 27.004 27.7529 27.706 25.4849 27.706ZM41.0275 27.49V23.116H49.8025V19.714H41.0275V15.61H50.9635V12.1H36.6805V31H51.3145V27.49H41.0275ZM68.9157 31H73.5057L65.0547 12.1H60.7347L52.3107 31H56.7927L58.4667 26.95H67.2417L68.9157 31ZM59.8707 23.629L62.8677 16.393L65.8647 23.629H59.8707ZM83.4681 31.324C88.8411 31.324 92.0271 28.246 92.0271 22.684V12.1H87.7071V22.522C87.7071 26.113 86.1681 27.598 83.4951 27.598C80.8491 27.598 79.2831 26.113 79.2831 22.522V12.1H74.9091V22.684C74.9091 28.246 78.0951 31.324 83.4681 31.324ZM99.948 31H104.322V15.664H110.37V12.1H93.9V15.664H99.948V31ZM128.797 12.1H124.504L119.455 20.497L114.406 12.1H109.762L117.079 24.25V31H121.453V24.304L128.797 12.1ZM151.745 31L151.691 12.1H148.1L141.134 23.845L134.06 12.1H130.442V31H134.546V19.903L140.081 29.002H142.052L147.614 19.66L147.641 31H151.745ZM162.439 31.324C167.839 31.324 170.458 28.624 170.458 25.465C170.458 18.526 159.469 20.929 159.469 17.446C159.469 16.258 160.468 15.286 163.06 15.286C164.734 15.286 166.543 15.772 168.298 16.771L169.648 13.45C167.893 12.343 165.463 11.776 163.087 11.776C157.714 11.776 155.122 14.449 155.122 17.662C155.122 24.682 166.111 22.252 166.111 25.789C166.111 26.95 165.058 27.814 162.466 27.814C160.198 27.814 157.822 27.004 156.229 25.843L154.744 29.137C156.418 30.433 159.442 31.324 162.439 31.324Z" fill="white"/>
</svg>
