<svg width="28" height="24" viewBox="0 0 28 24" fill="none" xmlns="http://www.w3.org/2000/svg">
<path d="M22.33 16.33H10.7C9.96001 16.33 9.31002 15.85 9.08002 15.15L5.98999 5.54001H24.73C25.59 5.54001 26.21 6.35001 26 7.18001L23.97 15.05C23.78 15.8 23.1 16.33 22.32 16.33H22.33Z" fill="#8042D2" stroke="#8042D2" stroke-width="2" stroke-linecap="round" stroke-linejoin="round"/>
<path d="M8.70001 14.05L5.72998 5.14999" stroke="#8042D2" stroke-width="0.82" stroke-linecap="round" stroke-linejoin="round"/>
<path d="M11.6699 23.29C12.8905 23.29 13.8799 22.3005 13.8799 21.08C13.8799 19.8594 12.8905 18.87 11.6699 18.87C10.4494 18.87 9.45996 19.8594 9.45996 21.08C9.45996 22.3005 10.4494 23.29 11.6699 23.29Z" fill="#8042D2"/>
<path d="M21.48 23.29C22.7005 23.29 23.69 22.3005 23.69 21.08C23.69 19.8594 22.7005 18.87 21.48 18.87C20.2594 18.87 19.27 19.8594 19.27 21.08C19.27 22.3005 20.2594 23.29 21.48 23.29Z" fill="#8042D2"/>
<path d="M8.70001 14.05L4.89001 2.62C4.70001 2.04 4.15999 1.66 3.54999 1.66H1.65002" stroke="#8042D2" stroke-width="2" stroke-linecap="round" stroke-linejoin="round"/>
</svg>
