<svg width="34" height="28" viewBox="0 0 34 28" fill="none" xmlns="http://www.w3.org/2000/svg">
<path d="M31.8001 0.532227H2.24009C1.19009 0.532227 0.340088 1.38224 0.340088 2.43224V20.3922C0.340088 21.4422 1.19009 22.2922 2.24009 22.2922H4.24009C4.49009 22.2922 4.69009 22.4922 4.69009 22.7422V27.0022C4.69009 27.4022 5.18009 27.6122 5.46009 27.3222L10.3601 22.4222C10.4501 22.3322 10.5601 22.2922 10.6801 22.2922H31.8001C32.8501 22.2922 33.7001 21.4422 33.7001 20.3922V2.43224C33.7001 1.38224 32.8501 0.532227 31.8001 0.532227ZM23.5801 7.14223L16.7501 15.5522C16.5201 15.8322 16.1901 16.0022 15.8301 16.0122C15.8101 16.0122 15.8001 16.0122 15.7801 16.0122C15.4401 16.0122 15.1101 15.8722 14.8801 15.6322L10.6401 11.2022C10.1601 10.7022 10.1801 9.91222 10.6801 9.44221C11.1801 8.96222 11.9701 8.98222 12.4401 9.48222L15.7101 12.8922L21.6501 5.58223C22.0801 5.04223 22.8701 4.96224 23.4101 5.40224C23.9401 5.84224 24.0301 6.62222 23.5901 7.16222L23.5801 7.14223Z" fill="white"/>
</svg>
