<svg width="31" height="34" viewBox="0 0 31 34" fill="none" xmlns="http://www.w3.org/2000/svg">
<path d="M3.11001 30.5824H16.23C15.84 29.6124 15.61 28.5724 15.61 27.4824C15.61 23.0324 19.21 19.4324 23.66 19.4324C24.82 19.4324 25.9 19.6624 26.91 20.1324V11.0024H0.0100098V27.4824C0.0100098 29.1824 1.40001 30.5824 3.11001 30.5824Z" fill="white"/>
<path d="M26.9 6.82213C26.9 5.12213 25.51 3.72212 23.8 3.72212H23.41V5.04211C23.41 6.32211 22.37 7.40211 21.05 7.40211C19.73 7.40211 18.69 6.36211 18.69 5.04211V3.72212H8.17V5.04211C8.17 6.32211 7.13 7.40211 5.81 7.40211C4.49 7.40211 3.49 6.32212 3.49 5.00212V3.68213H3.1C1.4 3.68213 0 5.07212 0 6.78212V9.41212H26.9V6.82213Z" fill="white"/>
<path d="M5.04004 5.00228C5.04004 5.43228 5.39004 5.81228 5.85004 5.81228C6.31004 5.81228 6.66004 5.46228 6.66004 5.00228V0.862282C6.66004 0.432282 6.31004 0.0922852 5.85004 0.0922852C5.39004 0.0922852 5.04004 0.442282 5.04004 0.862282V5.00228Z" fill="white"/>
<path d="M20.29 5.00228C20.29 5.43228 20.64 5.81228 21.1 5.81228C21.56 5.81228 21.91 5.46228 21.91 5.00228V0.862282C21.91 0.432282 21.56 0.0922852 21.1 0.0922852C20.64 0.0922852 20.29 0.442282 20.29 0.862282V5.00228Z" fill="white"/>
<path d="M23.6499 20.9922C20.0499 20.9922 17.1499 23.9322 17.1499 27.4922C17.1499 31.0522 20.0899 33.9922 23.6499 33.9922C27.2499 34.0322 30.1899 31.0922 30.1899 27.4922C30.1899 23.8922 27.2499 20.9922 23.6499 20.9922ZM19.4299 27.4922H23.1099V22.3422C23.1099 21.9122 23.4599 21.5722 23.8799 21.5722C24.2999 21.5722 24.6499 21.9222 24.6499 22.3422V28.2622C24.6499 28.6922 24.2999 29.0322 23.8799 29.0322H19.4299C18.9999 29.0322 18.6599 28.6822 18.6599 28.2622C18.6599 27.8422 19.0099 27.4922 19.4299 27.4922Z" fill="white"/>
</svg>
