<svg width="87" height="87" viewBox="0 0 87 87" fill="none" xmlns="http://www.w3.org/2000/svg">
<path opacity="0.2" d="M43.42 86.84C67.4002 86.84 86.84 67.4002 86.84 43.42C86.84 19.4398 67.4002 0 43.42 0C19.4398 0 0 19.4398 0 43.42C0 67.4002 19.4398 86.84 43.42 86.84Z" fill="#A8A0E6"/>
<path d="M36.06 28.27L40.27 32.65C41.45 33.66 41.45 35.68 40.27 36.69L36.9 40.06C39.26 45.11 44.14 50 49.03 52.19L52.4 48.82C53.58 47.64 55.43 47.64 56.61 48.82L60.82 53.03C62 54.21 62 56.06 60.82 57.24L56.61 61.45C49.2 68.86 20.39 39.89 27.64 32.65L31.85 28.27C33.03 27.26 34.88 27.26 36.06 28.27V28.27Z" stroke="#8042CC" stroke-width="1.44" stroke-linecap="round" stroke-linejoin="round"/>
</svg>
