<svg width="149" height="153" viewBox="0 0 149 153" fill="none" xmlns="http://www.w3.org/2000/svg">
<path d="M38.04 18.89C39.1 20.33 38.69 21.91 36.67 23.4L32.96 26.13L26.78 17.72L30.27 15.16C32.03 13.87 33.67 13.81 34.7 15.21C35.42 16.18 35.36 17.21 34.75 18.14C36.1 17.52 37.23 17.78 38.05 18.89H38.04ZM30.45 20.88L33.01 19C34.29 18.06 34.63 16.99 33.88 15.97C33.14 14.96 32.01 14.96 30.73 15.9L28.17 17.78L30.45 20.88ZM37.13 19.47C36.33 18.38 35.21 18.44 33.8 19.47L30.96 21.56L33.32 24.77L36.16 22.68C37.57 21.64 37.95 20.57 37.14 19.47H37.13Z" fill="white"/>
<path d="M49.67 12.4701C50.56 14.5401 49.7 16.1901 47.34 17.2101L43.54 18.8401L39.42 9.25014L40.42 8.82014L41.89 12.2501L44.89 10.9601C47.14 9.99014 48.81 10.4901 49.67 12.4801V12.4701ZM48.67 12.9201C48.03 11.4301 46.81 11.1101 45.02 11.8801L42.25 13.0701L44.2 17.6101L46.97 16.4201C48.73 15.6601 49.33 14.4601 48.67 12.9301V12.9201ZM48.56 5.32014L49.56 4.89014L53.68 14.4801L52.68 14.9101L48.56 5.32014Z" fill="white"/>
<path d="M56.87 2.91029L64.36 1.55029L64.53 2.47029L58.11 3.64029L58.72 7.00029L62.07 6.39029C64.48 5.95029 65.96 6.73029 66.3 8.64029C66.66 10.6203 65.45 11.9603 62.92 12.4203L58.73 13.1803L56.86 2.92029L56.87 2.91029ZM62.75 11.5503C64.64 11.2103 65.49 10.3003 65.23 8.87029C64.97 7.45029 63.9 6.95029 61.98 7.29029L58.88 7.85029L59.65 12.1003L62.75 11.5403V11.5503Z" fill="white"/>
<path d="M78.5601 10.6002L78.5401 11.5502L71.1801 11.4302L71.3501 0.990234L78.4901 1.11023L78.4701 2.06023L72.4301 1.96023L72.3701 5.67023L77.7601 5.76023L77.7401 6.70023L72.3501 6.61023L72.2901 10.4902L78.5501 10.5902L78.5601 10.6002Z" fill="white"/>
<path d="M92.11 6.85002C91.68 9.03002 89.85 10.04 87.25 9.53002L84.51 8.99002L83.87 12.22L82.79 12.01L84.81 1.77002L88.63 2.52002C91.23 3.03002 92.54 4.66002 92.11 6.85002ZM91.03 6.64002C91.35 5.00002 90.46 3.85002 88.42 3.45002L85.71 2.92002L84.7 8.04002L87.41 8.57002C89.45 8.97002 90.72 8.25002 91.03 6.64002Z" fill="white"/>
<path d="M98.69 5.17041L99.69 5.59041L96.33 13.5604L105.83 8.19041L106.75 8.58041L102.69 18.1904L101.69 17.7704L105.05 9.82041L95.55 15.1804L94.63 14.7904L98.69 5.18041V5.17041Z" fill="white"/>
<path d="M118.21 16.7901L115.17 14.7501L109.88 22.6201L108.98 22.0101L114.27 14.1401L111.23 12.1001L111.76 11.3101L118.73 16.0001L118.2 16.7901H118.21Z" fill="white"/>
<path d="M121.76 31.4903L121.1 32.1803L115.79 27.0803L123.01 19.5503L128.16 24.4903L127.5 25.1803L123.15 21.0003L120.58 23.6803L124.46 27.4103L123.81 28.0903L119.93 24.3603L117.25 27.1603L121.77 31.5003L121.76 31.4903Z" fill="white"/>
<path d="M145.65 55.6101L135.77 58.9601L135.42 57.9301L144.4 54.8801L142.28 48.6401L133.3 51.6901L132.95 50.6601L142.83 47.3101L145.65 55.6001V55.6101Z" fill="white"/>
<path d="M141.99 62.6004C145.02 62.2804 147.51 64.3504 147.84 67.4804C148.17 70.5804 146.17 73.1404 143.13 73.4704C140.09 73.7904 137.61 71.7104 137.28 68.6004C136.95 65.4704 138.96 62.9204 141.99 62.6004ZM143.02 72.3704C145.5 72.1104 147.13 70.0704 146.86 67.5804C146.6 65.0804 144.58 63.4104 142.1 63.6704C139.62 63.9304 137.99 65.9904 138.26 68.4904C138.52 70.9704 140.54 72.6304 143.02 72.3704Z" fill="white"/>
<path d="M137.75 87.72L134.47 87.37L134.58 86.35L136.91 86.6L137.87 77.57L135.54 77.31L135.65 76.29L138.93 76.66L138.87 77.18C138.8 78.67 141.44 79.28 144.73 79.74L148.08 80.22L147.34 87.2L137.91 86.19L137.74 87.74L137.75 87.72ZM138.71 78.72L138.03 85.09L146.51 86L147.04 81.05L144.53 80.69C141.84 80.31 139.36 79.79 138.71 78.72Z" fill="white"/>
<path d="M145.68 94.7502L140.85 96.3401L143.91 100.38L143.52 101.61L139.8 96.7202L133.47 98.7602L133.86 97.5302L139.11 95.7902L135.79 91.3702L136.17 90.1602L140.17 95.4202L146.06 93.5402L145.68 94.7502Z" fill="white"/>
<path d="M137.14 103.7C139.81 105.16 140.68 108.28 139.17 111.05C137.67 113.79 134.57 114.76 131.89 113.29C129.21 111.82 128.36 108.69 129.86 105.95C131.37 103.18 134.48 102.24 137.14 103.7ZM132.42 112.32C134.6 113.51 137.11 112.76 138.3 110.57C139.51 108.37 138.8 105.84 136.61 104.65C134.43 103.46 131.92 104.22 130.71 106.42C129.51 108.61 130.23 111.12 132.41 112.32H132.42Z" fill="white"/>
<path d="M119.33 121.92L116.84 119.76L117.51 118.98L119.28 120.51L125.23 113.64L123.47 112.1L124.14 111.32L126.62 113.49L126.28 113.88C125.37 115.06 127.19 117.07 129.64 119.32L132.12 121.63L127.52 126.94L120.35 120.73L119.33 121.91V121.92ZM125.26 115.07L121.06 119.92L127.51 125.51L130.77 121.74L128.91 120.01C126.92 118.17 125.18 116.32 125.25 115.07H125.26Z" fill="white"/>
<path d="M116.06 136.67L109.72 128.38L110.58 127.72L112.5 130.23L114.97 128.34C115.14 128.21 115.3 128.11 115.46 128L115.26 124.14L116.19 123.43L116.37 127.55C117.86 127 119.25 127.43 120.29 128.78C121.73 130.66 121.25 132.7 119.28 134.21L116.07 136.67H116.06ZM115.47 129.14L113.07 130.97L116.34 135.24L118.66 133.47C120.2 132.3 120.51 130.87 119.43 129.46C118.4 128.11 117 127.96 115.47 129.13V129.14Z" fill="white"/>
<path d="M92.61 137.96L91.29 134.94L92.23 134.53L93.17 136.67L105.41 131.33L109.59 140.89L108.6 141.32L104.81 132.63L100.45 134.53L104.24 143.22L103.24 143.65L99.45 134.96L95.1 136.86L98.89 145.55L97.89 145.98L94.1 137.29L92.61 137.94V137.96Z" fill="white"/>
<path d="M90.01 148.08L88.94 148.25L87.57 139.71L82.36 149.3L81.38 149.46L79.72 139.15L80.79 138.98L82.16 147.51L87.37 137.93L88.35 137.77L90.01 148.08Z" fill="white"/>
<path d="M73.88 149.84L72.8 149.78L73.3 141.14L66.15 149.39L65.15 149.33L65.75 138.91L66.83 138.97L66.34 147.59L73.49 139.35L74.49 139.41L73.89 149.83L73.88 149.84ZM71.81 152.41L70.99 152.36C71.02 151.55 70.41 151.04 69.46 150.99C68.52 150.94 67.86 151.38 67.78 152.18L66.96 152.13C67.06 150.92 68.02 150.26 69.49 150.35C70.97 150.44 71.85 151.2 71.8 152.41H71.81Z" fill="white"/>
<path d="M33.37 133.61C34.52 131.71 36.59 131.39 38.85 132.76L41.2401 134.21L42.94 131.39L43.88 131.96L38.4901 140.9L35.16 138.89C32.89 137.52 32.21 135.54 33.37 133.63V133.61ZM34.3101 134.18C33.45 135.61 33.89 137 35.68 138.07L38.05 139.5L40.75 135.03L38.38 133.6C36.6 132.52 35.16 132.77 34.32 134.18H34.3101Z" fill="white"/>
<path d="M27.25 123.18L31.58 127.05L34.37 125.8L35.22 126.56L24.72 131.17L23.91 130.45L27.31 119.49L28.18 120.26L27.25 123.17V123.18ZM26.95 124.12L25.08 129.97L30.68 127.45L26.95 124.12Z" fill="white"/>
<path d="M13.16 122.89L12.68 122.23C13.32 121.74 13.33 120.94 12.76 120.18C12.21 119.42 11.44 119.19 10.78 119.64L10.3 118.98C11.29 118.29 12.41 118.61 13.29 119.8C14.17 121 14.14 122.17 13.17 122.89H13.16ZM16.46 122.85L15.82 121.97L22.79 116.85L11.87 116.59L11.28 115.79L19.7 109.62L20.34 110.5L13.38 115.61L24.29 115.88L24.88 116.68L16.46 122.85Z" fill="white"/>
<path d="M12.65 108.01C9.86005 109.23 6.85005 108.01 5.59005 105.12C4.34005 102.26 5.47005 99.2202 8.27005 98.0002C11.07 96.7802 14.07 98.0102 15.32 100.88C16.58 103.77 15.43 106.8 12.64 108.02L12.65 108.01ZM8.72005 99.0002C6.44005 100 5.50005 102.43 6.50005 104.72C7.51005 107.02 9.94005 108.01 12.22 107.01C14.5 106.01 15.43 103.56 14.43 101.26C13.43 98.9702 11.01 98.0002 8.72005 99.0002Z" fill="white"/>
<path d="M0 85.1102L10.25 83.1602L10.45 84.2302L5.72 85.1301L6.94 91.5302L11.67 90.6301L11.88 91.7102L1.63 93.6602L1.42 92.5802L5.99 91.7102L4.77 85.3102L0.2 86.1802L0 85.1102H0Z" fill="white"/>
<path d="M9.47001 51.66C11.7288 51.66 13.56 49.8288 13.56 47.57C13.56 45.3111 11.7288 43.48 9.47001 43.48C7.21116 43.48 5.38 45.3111 5.38 47.57C5.38 49.8288 7.21116 51.66 9.47001 51.66Z" fill="white"/>
<path d="M73.8401 41.1201L80.1801 69.0301L108.1 75.3801L80.1801 81.7301L73.8401 109.64L67.4901 81.7301L39.5701 75.3801L67.4901 69.0301L73.8401 41.1201Z" fill="white"/>
</svg>
