<svg width="87" height="87" viewBox="0 0 87 87" fill="none" xmlns="http://www.w3.org/2000/svg">
<path opacity="0.2" d="M43.42 86.84C67.4002 86.84 86.84 67.4002 86.84 43.42C86.84 19.4398 67.4002 0 43.42 0C19.4398 0 0 19.4398 0 43.42C0 67.4002 19.4398 86.84 43.42 86.84Z" fill="#A8A0E6"/>
<path d="M57.04 25.28H59.38C61.56 25.28 63.33 27.05 63.33 29.23V58.47C63.33 60.65 61.56 62.42 59.38 62.42H27.45C25.27 62.42 23.5 60.65 23.5 58.47V29.22C23.5 27.04 25.27 25.27 27.45 25.27H32.54" stroke="#8042CC" stroke-width="1.44" stroke-linecap="round" stroke-linejoin="round"/>
<path d="M36.7 25.28H53.8499" stroke="#8042CC" stroke-width="1.44" stroke-linecap="round" stroke-linejoin="round"/>
<path d="M32.99 43.84C33.592 43.84 34.08 43.352 34.08 42.75C34.08 42.148 33.592 41.66 32.99 41.66C32.388 41.66 31.9 42.148 31.9 42.75C31.9 43.352 32.388 43.84 32.99 43.84Z" fill="#8042CC" stroke="#8042CC" stroke-width="1.24" stroke-miterlimit="10"/>
<path d="M43.4201 43.84C44.0221 43.84 44.5101 43.352 44.5101 42.75C44.5101 42.148 44.0221 41.66 43.4201 41.66C42.8181 41.66 42.3301 42.148 42.3301 42.75C42.3301 43.352 42.8181 43.84 43.4201 43.84Z" fill="#8042CC" stroke="#8042CC" stroke-width="1.24" stroke-miterlimit="10"/>
<path d="M53.85 43.84C54.452 43.84 54.94 43.352 54.94 42.75C54.94 42.148 54.452 41.66 53.85 41.66C53.248 41.66 52.76 42.148 52.76 42.75C52.76 43.352 53.248 43.84 53.85 43.84Z" fill="#8042CC" stroke="#8042CC" stroke-width="1.24" stroke-miterlimit="10"/>
<path d="M32.99 52.66C33.592 52.66 34.08 52.172 34.08 51.57C34.08 50.968 33.592 50.48 32.99 50.48C32.388 50.48 31.9 50.968 31.9 51.57C31.9 52.172 32.388 52.66 32.99 52.66Z" fill="#8042CC" stroke="#8042CC" stroke-width="1.24" stroke-miterlimit="10"/>
<path d="M43.4201 52.66C44.0221 52.66 44.5101 52.172 44.5101 51.57C44.5101 50.968 44.0221 50.48 43.4201 50.48C42.8181 50.48 42.3301 50.968 42.3301 51.57C42.3301 52.172 42.8181 52.66 43.4201 52.66Z" fill="#8042CC" stroke="#8042CC" stroke-width="1.24" stroke-miterlimit="10"/>
<path d="M53.85 52.66C54.452 52.66 54.94 52.172 54.94 51.57C54.94 50.968 54.452 50.48 53.85 50.48C53.248 50.48 52.76 50.968 52.76 51.57C52.76 52.172 53.248 52.66 53.85 52.66Z" fill="#8042CC" stroke="#8042CC" stroke-width="1.24" stroke-miterlimit="10"/>
<path d="M32.99 21.75V28.8" stroke="#8042CC" stroke-width="1.44" stroke-linecap="round" stroke-linejoin="round"/>
<path d="M53.85 21.75V28.8" stroke="#8042CC" stroke-width="1.44" stroke-linecap="round" stroke-linejoin="round"/>
</svg>
