<svg width="87" height="87" viewBox="0 0 87 87" fill="none" xmlns="http://www.w3.org/2000/svg">
<path opacity="0.2" d="M43.42 86.84C67.4002 86.84 86.84 67.4002 86.84 43.42C86.84 19.4398 67.4002 0 43.42 0C19.4398 0 0 19.4398 0 43.42C0 67.4002 19.4398 86.84 43.42 86.84Z" fill="#A8A0E6"/>
<path d="M60.83 30.55H26.01C25.1982 30.55 24.54 31.2081 24.54 32.02V54.83C24.54 55.6418 25.1982 56.3 26.01 56.3H60.83C61.6419 56.3 62.3 55.6418 62.3 54.83V32.02C62.3 31.2081 61.6419 30.55 60.83 30.55Z" stroke="#8042CC" stroke-width="1.44" stroke-linecap="round" stroke-linejoin="round"/>
<path d="M25.6901 31.07L42.1401 47.56C42.8401 48.27 43.9901 48.27 44.6901 47.56L61.1401 31.07" stroke="#8042CC" stroke-width="1.44" stroke-linecap="round" stroke-linejoin="round"/>
<path d="M25.15 53.84L37.1 42.34" stroke="#8042CC" stroke-width="1.44" stroke-linecap="round" stroke-linejoin="round"/>
<path d="M61.69 53.84L49.74 42.34" stroke="#8042CC" stroke-width="1.44" stroke-linecap="round" stroke-linejoin="round"/>
</svg>
